# xmcd
#
# Track frame offsets:
#	150
#	13467
#	45283
#	60220
#	76018
#	92129
#	117748
#	142240
#	152393
#	166768
#	183012
#	205502
#	223713
#	244279
#	265378
#	274599
#	288100
#	303849
#	319680
#	336759
#
# Disc length: 4720 seconds
#
# Revision: 1
# Processed by: cddbd v1.5.1PL0 Copyright (c) Steve Scherf et al.
# Submitted via: audiograbber 1.82.02
#
DISCID=0e126e14
DTITLE=Various Artist - The Hits
DYEAR=2004
DGENRE=various
TTITLE0=Linkin Park - From the Inside
TTITLE1=Floorfilla - Anthem#1
TTITLE2=Baha Men - Who let the dogs out
TTITLE3=Floorfilla - Anthem#2
TTITLE4=Dune- Are you ready to fly
TTITLE5=Eminem - sing for the Moment
TTITLE6=Eminem - White America
TTITLE7=Eminem - The real thong song
TTITLE8=Floorfilla - Technoromance
TTITLE9=Floorfilla - Hardcorevibes
TTITLE10=Eminem - cleaning out my Closet
TTITLE11=Floorfilla - Anthem#3
TTITLE12=Eminem - The Anthem
TTITLE13=Master Blaster - Hypnotic tango
TTITLE14=Floorfilla - Anthem#4
TTITLE15=Kevin Lyttle - Turn me on
TTITLE16=Scooter - Nessaja
TTITLE17=Linkin Park - Crawling
TTITLE18=Scooter - How much is the fish
TTITLE19=Scooter - Posse
EXTD=
EXTT0=
EXTT1=
EXTT2=
EXTT3=
EXTT4=
EXTT5=
EXTT6=
EXTT7=
EXTT8=
EXTT9=
EXTT10=
EXTT11=
EXTT12=
EXTT13=
EXTT14=
EXTT15=
EXTT16=
EXTT17=
EXTT18=
EXTT19=
PLAYORDER=
